<?xml version="1.0" standalone="no"?><!DOCTYPE svg PUBLIC "-//W3C//DTD SVG 1.1//EN" "http://www.w3.org/Graphics/SVG/1.1/DTD/svg11.dtd"><svg t="1607149249881" class="icon" viewBox="0 0 1024 1024" version="1.1" xmlns="http://www.w3.org/2000/svg" p-id="2048" xmlns:xlink="http://www.w3.org/1999/xlink" width="200" height="200"><defs><style type="text/css"></style></defs><path d="M512 948.907c-116.702 0-226.419-45.445-308.94-127.967-82.519-82.519-127.967-192.238-127.967-308.94s45.446-226.419 127.967-308.94 192.238-127.967 308.94-127.967 226.42 45.446 308.94 127.967c82.522 82.522 127.967 192.238 127.967 308.94s-45.445 226.42-127.967 308.94c-82.519 82.522-192.238 127.967-308.94 127.967zM512 118.784c-216.819 0-393.216 176.397-393.216 393.216 0 216.82 176.397 393.216 393.216 393.216 216.82 0 393.216-176.396 393.216-393.216 0-216.819-176.396-393.216-393.216-393.216z" fill="" p-id="2049"></path><path d="M721.104 555.691h-418.209c-24.129 0-43.691-19.562-43.691-43.691s19.562-43.691 43.691-43.691h418.209c24.129 0 43.691 19.562 43.691 43.691s-19.562 43.691-43.691 43.691z" fill="" p-id="2050"></path></svg>