<?xml version="1.0" standalone="no"?><!DOCTYPE svg PUBLIC "-//W3C//DTD SVG 1.1//EN" "http://www.w3.org/Graphics/SVG/1.1/DTD/svg11.dtd"><svg t="1607142748235" class="icon" viewBox="0 0 1024 1024" version="1.1" xmlns="http://www.w3.org/2000/svg" p-id="2262" xmlns:xlink="http://www.w3.org/1999/xlink" width="200" height="200"><defs><style type="text/css"></style></defs><path d="M170.667 868.693l98.346-94.72a21.333 21.333 0 0 1 30.72 1.174l98.176 110.122 98.176-110.122a21.333 21.333 0 0 1 31.83 0l98.176 110.122 98.176-110.122a21.333 21.333 0 0 1 30.72-1.174l98.346 94.72V128H170.667v740.693zM128 918.08V106.71c0-11.82 9.707-21.377 21.333-21.377h725.334c11.776 0 21.333 9.643 21.333 21.184V918.06a21.333 21.333 0 0 1-36.117 16.149L741.376 820.075l-99.35 111.445a21.333 21.333 0 0 1-31.85 0L512 821.397 413.824 931.52a21.333 21.333 0 0 1-31.85 0l-99.35-111.445-118.485 114.133A21.333 21.333 0 0 1 128 918.08zM298.667 320c0-11.776 9.493-21.333 21.184-21.333h341.632c11.69 0 21.184 9.472 21.184 21.333 0 11.776-9.494 21.333-21.184 21.333H319.85A21.205 21.205 0 0 1 298.667 320z m0 128c0-11.776 9.6-21.333 21.482-21.333h255.702c11.861 0 21.482 9.472 21.482 21.333 0 11.776-9.6 21.333-21.482 21.333H320.149A21.355 21.355 0 0 1 298.667 448z m0 128c0-11.776 9.6-21.333 21.482-21.333h255.702c11.861 0 21.482 9.472 21.482 21.333 0 11.776-9.6 21.333-21.482 21.333H320.149A21.355 21.355 0 0 1 298.667 576z" p-id="2263"></path></svg>