<?xml version="1.0" standalone="no"?><!DOCTYPE svg PUBLIC "-//W3C//DTD SVG 1.1//EN" "http://www.w3.org/Graphics/SVG/1.1/DTD/svg11.dtd"><svg t="1607142779504" class="icon" viewBox="0 0 1024 1024" version="1.1" xmlns="http://www.w3.org/2000/svg" p-id="3226" xmlns:xlink="http://www.w3.org/1999/xlink" width="200" height="200"><defs><style type="text/css"></style></defs><path d="M824.5 880.9h-627c-74 0-134.2-60.2-134.2-134.1v-80.2c0-47.7 25.3-91.2 67.6-116.5 13.7-8.2 21.9-22.6 21.9-38.5 0-15.9-8.2-30.3-21.9-38.5-42.4-25.3-67.7-68.8-67.7-116.5v-80.2c0-74 60.2-134.2 134.2-134.2h627c74 0 134.2 60.2 134.2 134.2v80.2c0 47.7-25.3 91.2-67.7 116.5-13.7 8.2-21.9 22.6-21.9 38.5 0 15.9 8.2 30.3 21.9 38.5 42.4 25.3 67.7 68.9 67.7 116.5v80.2c0.1 73.9-60.1 134.1-134.1 134.1z m-627-649.1c-24.6 0-44.6 20-44.6 44.6v80.2c0 15.8 9 30.6 24 39.6 40.4 24.1 65.6 68.3 65.6 115.4 0 47.1-25.1 91.3-65.6 115.4-15 9-24 23.8-24 39.6v80.2c0 24.6 20 44.6 44.6 44.6h627c24.6 0 44.6-20 44.6-44.6v-80.2c0-15.8-9-30.6-24-39.6-40.4-24.1-65.5-68.3-65.5-115.4 0-47.1 25.1-91.3 65.6-115.4 15-9 24-23.8 24-39.6v-80.2c0-24.6-20-44.6-44.6-44.6H197.5z" fill="#333333" p-id="3227"></path><path d="M644.3 406c-24.7 0-44.8-20-44.8-44.8v-44.8c0-24.7 20-44.8 44.8-44.8s44.8 20 44.8 44.8v44.8c0 24.8-20.1 44.8-44.8 44.8zM644.3 573.9c-24.7 0-44.8-20-44.8-44.8v-44.8c0-24.7 20-44.8 44.8-44.8s44.8 20 44.8 44.8v44.8c0 24.7-20.1 44.8-44.8 44.8zM644.3 741.8c-24.7 0-44.8-20-44.8-44.8v-44.8c0-24.7 20-44.8 44.8-44.8s44.8 20 44.8 44.8V697c0 24.7-20.1 44.8-44.8 44.8z" fill="#1296db" p-id="3228"></path></svg>