<?xml version="1.0" standalone="no"?><!DOCTYPE svg PUBLIC "-//W3C//DTD SVG 1.1//EN" "http://www.w3.org/Graphics/SVG/1.1/DTD/svg11.dtd"><svg t="1607142774572" class="icon" viewBox="0 0 1024 1024" version="1.1" xmlns="http://www.w3.org/2000/svg" p-id="3081" xmlns:xlink="http://www.w3.org/1999/xlink" width="200" height="200"><defs><style type="text/css"></style></defs><path d="M1024 512c0-56.32-46.08-102.4-102.4-102.4h-94.72L532.48 10.24c-10.24-12.8-32-12.8-40.96 0L197.12 409.6H102.4c-56.32 0-102.4 46.08-102.4 102.4 0 53.76 42.24 98.56 96 102.4l122.88 391.68c3.84 10.24 12.8 17.92 24.32 17.92h537.6c11.52 0 20.48-7.68 24.32-17.92L928 614.4c53.76-3.84 96-48.64 96-102.4zM512 69.12L762.88 409.6H261.12L512 69.12zM761.6 972.8h-499.2l-112.64-358.4h724.48l-112.64 358.4zM921.6 563.2H102.4c-28.16 0-51.2-23.04-51.2-51.2s23.04-51.2 51.2-51.2h57.6l-26.88 35.84c-8.96 11.52-6.4 26.88 5.12 35.84 11.52 8.96 26.88 6.4 35.84-5.12l48.64-66.56h577.28l48.64 66.56c5.12 6.4 12.8 10.24 20.48 10.24 5.12 0 10.24-1.28 15.36-5.12 11.52-8.96 14.08-24.32 5.12-35.84l-25.6-35.84H921.6c28.16 0 51.2 23.04 51.2 51.2s-23.04 51.2-51.2 51.2z" fill="#333333" p-id="3082"></path><path d="M512 870.4c14.08 0 25.6-11.52 25.6-25.6v-102.4c0-14.08-11.52-25.6-25.6-25.6s-25.6 11.52-25.6 25.6v102.4c0 14.08 11.52 25.6 25.6 25.6zM640 870.4c14.08 0 25.6-11.52 25.6-25.6v-102.4c0-14.08-11.52-25.6-25.6-25.6s-25.6 11.52-25.6 25.6v102.4c0 14.08 11.52 25.6 25.6 25.6zM384 870.4c14.08 0 25.6-11.52 25.6-25.6v-102.4c0-14.08-11.52-25.6-25.6-25.6s-25.6 11.52-25.6 25.6v102.4c0 14.08 11.52 25.6 25.6 25.6z" fill="#333333" p-id="3083"></path></svg>