<?xml version="1.0" standalone="no"?><!DOCTYPE svg PUBLIC "-//W3C//DTD SVG 1.1//EN" "http://www.w3.org/Graphics/SVG/1.1/DTD/svg11.dtd"><svg t="1607142782651" class="icon" viewBox="0 0 1024 1024" version="1.1" xmlns="http://www.w3.org/2000/svg" p-id="3371" xmlns:xlink="http://www.w3.org/1999/xlink" width="200" height="200"><defs><style type="text/css"></style></defs><path d="M451.41989832 732.27339952c-28.57654013 0-51.82816751-23.25162738-51.82816752-51.8281675s23.25162738-51.82816751 51.82816752-51.82816752S503.24806582 651.86869187 503.24806582 680.44523202 480.00135526 732.27339952 451.41989832 732.27339952z m0-77.74470968c-14.29318688 0-25.91654216 11.62335528-25.91654217 25.91654218s11.62335528 25.91654216 25.91654217 25.91654216 25.91654216-11.62335528 25.91654215-25.91654216-11.62335528-25.91654216-25.91654215-25.91654218zM645.78167249 732.27339952c-28.57654013 0-51.82816751-23.25162738-51.82816751-51.8281675s23.25162738-51.82816751 51.82816751-51.82816752S697.60983999 651.86869187 697.60983999 680.44523202 674.35821261 732.27339952 645.78167249 732.27339952z m-1e-8-77.74470968c-14.29318688 0-25.91654216 11.62335528-25.91654216 25.91654218s11.62335528 25.91654216 25.91654216 25.91654216 25.91654216-11.62335528 25.91654217-25.91654216-11.6282721-25.91654216-25.91654217-25.91654218zM652.14403362 602.70052235H436.61044566c-5.78217674 0-10.8710823-3.83511722-12.45921418-9.39603721L372.323064 411.89852364c-1.12103427-3.90886949-0.33434355-8.11274797 2.11423127-11.36276398a12.95187922 12.95187922 0 0 1 10.34498287-5.15282416h304.39030397c12.31170965 0 23.61547183 5.63958906 31.03494861 15.46338932 7.41455996 9.82871709 9.72546394 22.25351354 6.33777705 34.08829193l-37.01871485 129.56796036c-4.74964518 16.60900767-20.12453179 28.19794522-37.3825593 28.19794523z m-205.75895587-25.91654217h205.75895587c5.75759265 0 10.88091592-3.86461813 12.46413099-9.39603721l37.01871484-129.56796035c1.12595108-3.94820401 0.35401082-8.08816388-2.1142313-11.36276397-2.47315894-3.27951691-6.24435753-5.15774098-10.34498287-5.157741H401.95671975l44.428358 155.48450253z" fill="#d81e06" p-id="3372"></path><path d="M645.78167249 654.52868984H470.96916253c-17.25802749 0-32.63291412-11.58893755-37.37764248-28.18811159L348.07823959 327.03917984c-1.58321507-5.5363359-6.70653833-9.3960372-12.45921417-9.39603719H308.89120847c-7.15396867 0-12.95581268-5.80184402-12.95581266-12.95581269S301.73723981 291.72660048 308.89120847 291.72660048h26.73273376c17.26786115 0 32.63291412 11.59385438 37.37272567 28.19794522L458.50503155 619.2210273c1.58321507 5.53141906 6.70653833 9.3960372 12.46413098 9.3960372h174.80759314c7.15396867 0 12.95581268 5.80184402 12.95581268 12.95581268 0.00491682 7.15396867-5.79692719 12.95581268-12.95089587 12.95581266z" fill="#d81e06" p-id="3373"></path></svg>