<?xml version="1.0" standalone="no"?><!DOCTYPE svg PUBLIC "-//W3C//DTD SVG 1.1//EN" "http://www.w3.org/Graphics/SVG/1.1/DTD/svg11.dtd"><svg t="1607142740406" class="icon" viewBox="0 0 1024 1024" version="1.1" xmlns="http://www.w3.org/2000/svg" p-id="1973" xmlns:xlink="http://www.w3.org/1999/xlink" width="200" height="200"><defs><style type="text/css"></style></defs><path d="M674.47 882.19H348.26a81.85 81.85 0 0 1-81.74-81.74V556.59a34.91 34.91 0 1 1 69.81 0v243.86a11.94 11.94 0 0 0 11.93 11.93h326.21a11.94 11.94 0 0 0 11.93-11.93V556.59a34.91 34.91 0 0 1 69.81 0v243.86a81.85 81.85 0 0 1-81.74 81.74zM801 478.46a34.79 34.79 0 0 1-24.68-10.23l-252.1-252.14a18.55 18.55 0 0 0-25.63 0L246.4 468.24a34.9 34.9 0 1 1-49.4-49.36l252.19-252.15c33.13-33.2 91.18-33.27 124.39 0l252.14 252.15A34.91 34.91 0 0 1 801 478.46z" fill="#42494F" p-id="1974"></path><path d="M577 750.31a34.89 34.89 0 0 1-34.91-34.91v-98.24a34.91 34.91 0 0 1 69.81 0v98.24a34.89 34.89 0 0 1-34.9 34.91z" fill="#42494F" p-id="1975"></path></svg>